<svg width="99" height="79" viewBox="0 0 99 79" fill="none" xmlns="http://www.w3.org/2000/svg">
<path d="M34.2458 43.2959C30.9827 41.3581 30.9833 36.6342 34.2468 34.6972L73.4205 11.4461C76.7537 9.46768 80.973 11.8702 80.9725 15.7464L80.9666 62.258C80.9661 66.1341 76.7462 68.5356 73.4135 66.5564L34.2458 43.2959Z" fill="#F5C106"/>
<path d="M43.9129 43.433C40.4807 41.5636 40.4206 36.6577 43.806 34.7088L68.761 20.3433C72.0708 18.4379 76.2104 20.7989 76.2571 24.6186L76.6019 52.7638C76.6486 56.5836 72.5681 59.0403 69.2126 57.2127L43.9129 43.433Z" fill="black"/>
<path d="M67.1812 35.0389C70.3731 37.0017 70.3516 41.6482 67.1416 43.5813L26.1447 68.2707C22.8033 70.2829 18.5472 67.8647 18.5653 63.9642L18.7959 14.2065C18.814 10.3061 23.0924 7.9274 26.415 9.97054L67.1812 35.0389Z" fill="#BA26FF"/>
<path d="M56.6925 34.1239C60.2052 35.9964 60.2278 41.023 56.7322 42.9271L29.767 57.6148C26.4439 59.4249 22.3924 57.0305 22.3753 53.2465L22.244 24.1146C22.227 20.3306 26.2567 17.8998 29.596 19.6798L56.6925 34.1239Z" fill="black"/>
</svg>
