<svg width="21" height="22" viewBox="0 0 21 22" fill="none" xmlns="http://www.w3.org/2000/svg">
<path opacity="0.5" d="M20.5 15.5V14.5C20.5 11.671 20.5 10.258 19.621 9.379C18.742 8.5 17.328 8.5 14.5 8.5H6.5C3.67 8.5 2.257 8.5 1.378 9.38C0.5 10.257 0.5 11.67 0.5 14.498V15.5C0.5 18.328 0.5 19.742 1.379 20.621C2.257 21.5 3.672 21.5 6.5 21.5H14.5C17.328 21.5 18.743 21.5 19.621 20.621C20.5 19.742 20.5 18.328 20.5 15.5Z" fill="#FFA101"/>
<path fill-rule="evenodd" clip-rule="evenodd" d="M10.5 15.2501C10.6989 15.2501 10.8897 15.1711 11.0303 15.0304C11.171 14.8897 11.25 14.699 11.25 14.5001V3.52707L12.93 5.48807C13.0594 5.63924 13.2436 5.73281 13.442 5.74819C13.6404 5.76357 13.8368 5.69949 13.988 5.57007C14.1392 5.44064 14.2327 5.25647 14.2481 5.05805C14.2635 4.85964 14.1994 4.66324 14.07 4.51207L11.07 1.01207C10.9996 0.929735 10.9122 0.863631 10.8138 0.818306C10.7154 0.772981 10.6083 0.749512 10.5 0.749512C10.3917 0.749512 10.2846 0.772981 10.1862 0.818306C10.0878 0.863631 10.0004 0.929735 9.93 1.01207L6.93 4.51207C6.86591 4.58692 6.8172 4.67367 6.78664 4.76735C6.75607 4.86103 6.74426 4.95981 6.75188 5.05805C6.75949 5.1563 6.78638 5.25208 6.83101 5.33993C6.87565 5.42778 6.93714 5.50598 7.012 5.57007C7.08685 5.63415 7.17359 5.68287 7.26727 5.71343C7.36095 5.74399 7.45973 5.7558 7.55798 5.74819C7.65622 5.74057 7.75201 5.71368 7.83986 5.66905C7.92771 5.62442 8.00591 5.56292 8.07 5.48807L9.75 3.52807V14.5001C9.75 14.9141 10.086 15.2501 10.5 15.2501Z" fill="#FFA101"/>
</svg>
